<svg id="eTULM8XZpNJ1" xmlns="http://www.w3.org/2000/svg" xmlns:xlink="http://www.w3.org/1999/xlink" viewBox="0 0 200 65" shape-rendering="geometricPrecision" text-rendering="geometricPrecision"><g transform="matrix(.1 0 0-.1 0 65)"><path d="M219,600C169,573,106,499,67,421c-29-59-32-74-32-156c0-80,3-97,30-150c41-82,82-103,170-88c94,16,318,91,370,124c25,16,50,41,56,56c24,64-34,179-151,294-111,110-208,143-291,99ZM418,440c51-48,52-181,2-232-40-40-110-40-150,0-49,50-49,183,1,233c27,27,117,27,147-1Z" fill="#0228b7"/><path d="M331,376c-7-8-11-37-9-68c3-45,6-53,23-53s20,8,23,56c3,62-14,92-37,65Z" fill="#0228b7"/><path d="M858,430c-23-14-41-75-34-113c9-42,34-67,68-67c45,0,68,31,68,93c0,58-5,69-37,86-26,13-42,14-65,1Zm66-26c18-18,21-85,6-115-13-23-53-25-71-2-22,25-18,102,5,119c25,18,41,18,60-2Z"/><path d="M1848,429c-26-15-40-77-27-121c8-31,19-42,60-63c59-29,66-31,49-10-10,11-10,18-1,29c22,27,31,78,21,118-15,52-59,73-102,47Zm63-19c15-9,19-22,19-63c0-57-12-77-45-77s-45,20-45,77c0,39,4,55,18,62c22,13,29,13,53,1Z"/><path d="M1000,340c0-53,4-90,10-90s10,18,10,40c0,39,1,40,35,40c45,0,71,34,56,74-9,23-16,26-61,26h-50v-90Zm88,43c-2-23-8-29-35-31-31-3-33-1-33,27c0,29,3,31,36,31s35-2,32-27Z" fill="#000209"/><path d="M1142,343l3-88l49-3c27-2,54,2,59,7c8,8-3,11-36,11h-47v35c0,33,2,35,35,35c19,0,35,5,35,10c0,6-16,10-35,10-31,0-35,3-35,25s4,25,39,25c22,0,43,5,46,10c4,6-17,10-55,10h-61l3-87Z"/><path d="M1290,346c0-47,5-88,10-91c6-4,10,18,10,60c0,39,4,64,9,60c6-3,25-32,43-65s36-60,40-60c5,0,8,41,8,90c0,101-17,124-22,29l-3-61-35,61c-49,85-60,80-60-23Z" fill="#000104"/><path d="M1510,346c0-47,5-88,10-91c6-4,10,10,10,34c0,38,2,41,28,41c24,0,32-7,47-40c10-22,22-40,27-40c11,0,11,2-8,45-14,34-14,39,0,54c19,21,21,52,4,69-7,7-36,12-65,12h-53v-84Zm106,49c10-25-16-46-50-43-25,2-32,8-34,31-3,26-1,27,38,27c27,0,43-5,46-15Z"/><path d="M1672,343l3-88l53-3c30-2,52,1,52,7c0,5-19,11-42,13-40,3-43,5-43,33c0,27,3,30,38,33c20,2,37,7,37,12s-17,10-37,12c-31,2-39,7-41,26-3,20,1,22,42,22c25,0,46,5,46,10c0,6-25,10-55,10h-56l3-87Z"/></g></svg>