<svg id="ei3rdZwT5IS1" xmlns="http://www.w3.org/2000/svg" xmlns:xlink="http://www.w3.org/1999/xlink" viewBox="0 0 164 50" shape-rendering="geometricPrecision" text-rendering="geometricPrecision">
<path d="M78.55,16.45v11.95c0,1.85-.525,3.275-1.575,4.275-1.0333,1-2.4333,1.5-4.2,1.5-1.85,0-3.3333-.525-4.45-1.575s-1.675-2.5417-1.675-4.475h4.25c0,.7333.15,1.2917.45,1.675.3.3667.7333.55,1.3.55.5167,0,.9167-.1667,1.2-.5s.425-.8167.425-1.45v-11.95h4.275ZM90.8531,34.2c-1.3666,0-2.6-.2917-3.7-.875-1.0833-.5833-1.9416-1.4167-2.575-2.5-.6166-1.0833-.925-2.35-.925-3.8c0-1.4333.3167-2.6917.95-3.775.6334-1.1,1.5-1.9417,2.6-2.525s2.3334-.875,3.7-.875c1.3667,0,2.6.2917,3.7.875s1.9667,1.425,2.6,2.525c.6334,1.0833.95,2.3417.95,3.775s-.325,2.7-.975,3.8c-.6333,1.0833-1.5083,1.9167-2.625,2.5-1.1.5833-2.3333.875-3.7.875Zm0-3.7c.8167,0,1.5084-.3,2.075-.9.5834-.6.875-1.4583.875-2.575s-.2833-1.975-.85-2.575c-.55-.6-1.2333-.9-2.05-.9-.8333,0-1.525.3-2.075.9-.55.5833-.825,1.4417-.825,2.575c0,1.1167.2667,1.975.8,2.575.55.6,1.2334.9,2.05.9Zm16.3429-8.475c.4-.65.975-1.175,1.725-1.575s1.608-.6,2.575-.6c1.15,0,2.192.2917,3.125.875s1.667,1.4167,2.2,2.5c.55,1.0833.825,2.3417.825,3.775s-.275,2.7-.825,3.8c-.533,1.0833-1.267,1.925-2.2,2.525-.933.5833-1.975.875-3.125.875-.983,0-1.842-.1917-2.575-.575-.733-.4-1.308-.925-1.725-1.575v1.95h-4.275v-18.5h4.275v6.525Zm6.1,4.975c0-1.0667-.3-1.9-.9-2.5-.583-.6167-1.308-.925-2.175-.925-.85,0-1.575.3083-2.175.925-.583.6167-.875,1.4583-.875,2.525s.292,1.9083.875,2.525c.6.6167,1.325.925,2.175.925s1.575-.3083,2.175-.925c.6-.6333.9-1.4833.9-2.55Z" transform="translate(-13.414885-.684708)" fill="#2cb1bc"/>
<path d="M90.8531,34.2c-1.3666,0-2.6-.2917-3.7-.875-1.0833-.5833-1.9416-1.4167-2.575-2.5-.6166-1.0833-.925-2.35-.925-3.8c0-1.4333.3167-2.6917.95-3.775.6334-1.1,1.5-1.9417,2.6-2.525s2.3334-.875,3.7-.875c1.3667,0,2.6.2917,3.7.875s1.9667,1.425,2.6,2.525c.6334,1.0833.95,2.3417.95,3.775s-.325,2.7-.975,3.8c-.6333,1.0833-1.5083,1.9167-2.625,2.5-1.1.5833-2.3333.875-3.7.875Zm0-3.7c.8167,0,1.5084-.3,2.075-.9.5834-.6.875-1.4583.875-2.575s-.2833-1.975-.85-2.575c-.55-.6-1.2333-.9-2.05-.9-.8333,0-1.525.3-2.075.9-.55.5833-.825,1.4417-.825,2.575c0,1.1167.2667,1.975.8,2.575.55.6,1.2334.9,2.05.9Z" transform="translate(24.237566-.752209)" fill="#2cb1bc"/>
<rect width="50" height="50" rx="10" fill="#2CB1BC"/>
<path d="M26.0039,9.5625h5.8594v19.6875c0,1.8099-.4037,3.4115-1.211,4.8047-.7942,1.3802-1.9205,2.4479-3.3789,3.2031-1.4583.7552-3.1054,1.1328-4.9414,1.1328-3.0078,0-5.3515-.7617-7.0312-2.2851-1.6797-1.5365-2.5196-3.7045-2.5196-6.5039h5.8985c0,1.3932.293,2.4218.8789,3.0859s1.5104.9961,2.7734.9961c1.1198,0,2.0118-.3841,2.6758-1.1524.6641-.7682.9961-1.8619.9961-3.2812v-19.6875Z" fill="#fff"/>
</svg>